<?xml version="1.0" encoding="UTF-8"?>
<svg id="Globe" xmlns="http://www.w3.org/2000/svg" viewBox="0 0 1024 1024">
  <defs>
    <style>
      .cls-1 {
        stroke: #def2fd;
      }

      .cls-1, .cls-2, .cls-3 {
        fill: none;
        stroke-miterlimit: 10;
        stroke-width: 64px;
      }

      .cls-2 {
        stroke: #9dbec8;
      }

      .cls-3 {
        stroke: #447d9d;
      }

      .cls-4 {
        fill: #184a63;
      }

      .cls-4, .cls-5 {
        stroke-width: 0px;
      }

      .cls-5 {
        fill: #174963;
      }
    </style>
  </defs>
  <g id="Higher_Latitude" data-name="Higher Latitude">
    <line class="cls-1" x1="92" y1="256" x2="932" y2="256"/>
  </g>
  <g id="Lower_Latitude" data-name="Lower Latitude">
    <line class="cls-3" x1="92" y1="768" x2="932" y2="768"/>
  </g>
  <g id="Equator">
    <line class="cls-2" x1="22" y1="512" x2="1002" y2="512"/>
  </g>
  <g id="Longitude">
    <path class="cls-4" d="m512,64c19.01,0,38.63,8.44,58.31,25.1,23.49,19.87,46.13,50.82,65.46,89.49,21.07,42.15,37.72,91.73,49.49,147.37,12.43,58.78,18.73,121.37,18.73,186.05s-6.3,127.28-18.73,186.05c-11.77,55.64-28.42,105.22-49.49,147.37-19.34,38.67-41.97,69.61-65.46,89.49-19.69,16.65-39.31,25.1-58.31,25.1s-38.63-8.44-58.31-25.1c-23.49-19.87-46.13-50.82-65.46-89.49-21.07-42.15-37.72-91.73-49.49-147.37-12.43-58.78-18.73-121.37-18.73-186.05s6.3-127.27,18.73-186.05c11.77-55.64,28.42-105.22,49.49-147.37,19.34-38.67,41.97-69.61,65.46-89.49,19.69-16.65,39.31-25.1,58.31-25.1m0-64c-141.39,0-256,229.23-256,512s114.61,512,256,512,256-229.23,256-512S653.39,0,512,0h0Z"/>
  </g>
  <g id="Border">
    <path class="cls-5" d="m512,64c60.51,0,119.17,11.84,174.36,35.18,53.34,22.56,101.26,54.87,142.42,96.04,41.16,41.16,73.48,89.08,96.04,142.42,23.34,55.19,35.18,113.85,35.18,174.36s-11.84,119.17-35.18,174.36c-22.56,53.34-54.87,101.26-96.04,142.42-41.16,41.16-89.08,73.48-142.42,96.04-55.19,23.34-113.85,35.18-174.36,35.18s-119.17-11.84-174.36-35.18c-53.34-22.56-101.26-54.87-142.42-96.04-41.16-41.16-73.48-89.08-96.04-142.42-23.34-55.19-35.18-113.85-35.18-174.36s11.84-119.17,35.18-174.36c22.56-53.34,54.87-101.26,96.04-142.42s89.08-73.48,142.42-96.04c55.19-23.34,113.85-35.18,174.36-35.18m0-64C229.23,0,0,229.23,0,512s229.23,512,512,512,512-229.23,512-512S794.77,0,512,0h0Z"/>
  </g>
</svg>